#define max_toggled_width 12
#define max_toggled_height 12
static unsigned char max_toggled_bits[] = {
   0x00, 0x00, 0x00, 0x00, 0xe0, 0x03, 0xc0, 0x03, 0x80, 0x03, 0x44, 0x03,
   0x2c, 0x02, 0x1c, 0x00, 0x3c, 0x00, 0x7c, 0x00, 0x00, 0x00, 0x00, 0x00 };
